HIERARCHY
ROOT Hips
{
	OFFSET 15.585500 22.159004 44.358299
	CHANNELS 6 Xposition Yposition Zposition Zrotation Xrotation Yrotation
	JOINT Chest
	{
		OFFSET -0.128500 0.160400 6.566002
		CHANNELS 6 Xposition Yposition Zposition Zrotation Xrotation Yrotation
		JOINT Chest2
		{
			OFFSET 0.000000 0.000000 3.554802
			CHANNELS 6 Xposition Yposition Zposition Zrotation Xrotation Yrotation
			JOINT Neck
			{
				OFFSET 0.000000 0.000000 8.267998
				CHANNELS 6 Xposition Yposition Zposition Zrotation Xrotation Yrotation
				JOINT Head
				{
					OFFSET 0.000000 0.000002 2.173897
					CHANNELS 6 Xposition Yposition Zposition Zrotation Xrotation Yrotation
					End Site
					{
						OFFSET 0.000000 0.000000 7.718697
					}
				}
			}
			JOINT LeftCollar
			{
				OFFSET 2.057500 0.117599 5.946301
				CHANNELS 6 Xposition Yposition Zposition Zrotation Xrotation Yrotation
				JOINT LeftShoulder
				{
					OFFSET 4.957699 0.000000 0.000000
					CHANNELS 6 Xposition Yposition Zposition Zrotation Xrotation Yrotation
					JOINT LeftElbow
					{
						OFFSET 0.000000 0.000000 -8.465500
						CHANNELS 6 Xposition Yposition Zposition Zrotation Xrotation Yrotation
						JOINT LeftWrist
						{
							OFFSET 0.000000 -0.000002 -14.594898
							CHANNELS 6 Xposition Yposition Zposition Zrotation Xrotation Yrotation
							End Site
							{
								OFFSET 0.000000 0.000000 -2.173901
							}
						}
					}
				}
			}
			JOINT RightCollar
			{
				OFFSET -3.048500 -0.728800 6.604099
				CHANNELS 6 Xposition Yposition Zposition Zrotation Xrotation Yrotation
				JOINT RightShoulder
				{
					OFFSET -3.710299 0.000000 0.000000
					CHANNELS 6 Xposition Yposition Zposition Zrotation Xrotation Yrotation
					JOINT RightElbow
					{
						OFFSET 0.000000 0.000000 -10.450901
						CHANNELS 6 Xposition Yposition Zposition Zrotation Xrotation Yrotation
						JOINT RightWrist
						{
							OFFSET 0.000000 0.000000 -12.539200
							CHANNELS 6 Xposition Yposition Zposition Zrotation Xrotation Yrotation
							End Site
							{
								OFFSET 0.000000 -0.000002 -2.173901
							}
						}
					}
				}
			}
		}
	}
	JOINT LeftHip
	{
		OFFSET 2.442599 -0.601400 -2.767502
		CHANNELS 6 Xposition Yposition Zposition Zrotation Xrotation Yrotation
		JOINT LeftKnee
		{
			OFFSET 0.000000 -0.000002 -17.033703
			CHANNELS 6 Xposition Yposition Zposition Zrotation Xrotation Yrotation
			JOINT LeftAnkle
			{
				OFFSET 0.000000 -0.000002 -19.318800
				CHANNELS 6 Xposition Yposition Zposition Zrotation Xrotation Yrotation
				End Site
				{
					OFFSET 0.000000 -8.281900 0.000000
				}
			}
		}
	}
	JOINT RightHip
	{
		OFFSET -3.126200 -0.601400 -2.283501
		CHANNELS 6 Xposition Yposition Zposition Zrotation Xrotation Yrotation
		JOINT RightKnee
		{
			OFFSET 0.000000 -0.000002 -16.919401
			CHANNELS 6 Xposition Yposition Zposition Zrotation Xrotation Yrotation
			JOINT RightAnkle
			{
				OFFSET 0.000000 -0.000002 -18.035900
				CHANNELS 6 Xposition Yposition Zposition Zrotation Xrotation Yrotation
				End Site
				{
					OFFSET 0.000000 -9.230099 0.000000
				}
			}
		}
	}
}
MOTION
Frames: 6
Frame Time: 0.041667
20.567596 39.261101 9.576202 8.998474 -2.693700 -16.823231 -0.128498 0.160396 6.566001 -8.007158 2.780503 7.925076 -0.000002 0.000004 3.554799 0.578899 -9.187846 -0.315883 -0.000002 0.000001 8.268003 51.708210 14.104173 -5.007709 -0.000000 0.000002 2.173897 3.385349 -0.438092 5.260430 2.057502 0.117602 5.946306 -18.634969 2.698848 6.245807 4.957698 0.000004 0.000000 4.542525 -11.347280 -140.217295 0.000000 -0.000001 -8.465507 -62.606491 -129.294962 -117.154533 -0.000006 0.000000 -14.594896 -328.323915 -32.955939 -376.024262 -3.048501 -0.728801 6.604101 45.038349 22.339440 16.357419 -3.710304 0.000000 -0.000007 -3.485912 -21.665085 156.449021 -0.000000 0.000011 -10.450884 -56.277385 -28.941629 -12.988737 -0.000010 0.000005 -12.539194 484.946546 190.063237 -249.946237 2.442595 -0.601405 -2.767503 131.046673 6.868911 94.884578 0.000003 -0.000009 -17.033707 -188.209619 45.109933 171.366250 -0.000005 -0.000004 -19.318802 -170.878998 113.362986 429.337714 -3.126193 -0.601402 -2.283496 -132.670592 -32.688032 -107.831038 -0.000005 -0.000001 -16.919399 375.227343 -72.197306 -174.217553 0.000001 -0.000002 -18.035900 200.664155 52.238868 -195.419867
20.577499 39.264000 9.570400 8.907247 -2.773477 -16.755829 -0.128501 0.160392 6.566006 -7.945090 2.863649 7.913056 -0.000004 0.000003 3.554805 0.523671 -9.186600 -0.330435 0.000003 0.000003 8.268000 51.852030 14.108096 -5.194029 0.000002 0.000009 2.173897 3.258035 -0.411120 5.369753 2.057508 0.117604 5.946304 -18.648699 2.751002 6.357522 4.957695 0.000003 0.000000 4.558644 -11.299681 -140.377422 -0.000006 -0.000000 -8.465508 -62.954769 -129.235840 -117.253011 -0.000001 0.000002 -14.594891 -328.204469 -32.868127 -376.066582 -3.048495 -0.728798 6.604103 45.021288 22.344768 16.353792 -3.710297 -0.000004 -0.000008 -3.517176 -21.671825 156.348658 -0.000003 0.000005 -10.450895 -55.978489 -29.073691 -12.963382 -0.000010 0.000005 -12.539203 485.006925 190.157439 -249.899328 2.442595 -0.601405 -2.767500 131.105522 6.790887 94.824636 0.000001 -0.000007 -17.033707 -188.184197 45.110435 171.339475 -0.000004 -0.000004 -19.318802 -170.766108 113.372200 429.241162 -3.126198 -0.601408 -2.283499 -132.557894 -32.744012 -107.697132 -0.000005 -0.000001 -16.919399 374.996756 -72.190353 -174.376833 0.000001 0.000003 -18.035898 200.596686 52.244448 -195.388503
20.588398 39.266998 9.563892 8.804671 -2.858474 -16.683558 -0.128498 0.160398 6.566010 -7.873126 2.947705 7.902105 -0.000002 -0.000005 3.554804 0.458232 -9.182881 -0.347231 -0.000003 -0.000004 8.268004 51.979451 14.111624 -5.375997 -0.000001 0.000000 2.173898 3.150138 -0.380395 5.473014 2.057502 0.117595 5.946310 -18.663446 2.809709 6.442515 4.957695 -0.000000 -0.000004 4.579995 -11.257246 -140.517659 -0.000006 -0.000003 -8.465501 -63.333025 -129.174751 -117.337746 -0.000004 -0.000003 -14.594894 -328.084476 -32.731120 -376.129529 -3.048500 -0.728806 6.604107 44.958856 22.301579 16.333269 -3.710301 -0.000001 -0.000004 -3.492968 -21.635210 156.262967 0.000000 0.000004 -10.450902 -55.628950 -29.219870 -12.922886 -0.000007 0.000009 -12.539196 485.063478 190.257856 -249.856134 2.442598 -0.601396 -2.767500 131.174084 6.712973 94.759948 0.000000 -0.000002 -17.033703 -188.166343 45.109288 171.314463 -0.000000 -0.000002 -19.318802 -170.643397 113.381612 429.135458 -3.126194 -0.601396 -2.283500 -132.430961 -32.810781 -107.543166 -0.000003 -0.000000 -16.919395 374.717975 -72.187347 -174.565934 0.000003 -0.000001 -18.035898 200.515762 52.252078 -195.341962
20.600298 39.269905 9.556992 8.693085 -2.946968 -16.606761 -0.128498 0.160398 6.566001 -7.792376 3.029542 7.890847 0.000000 -0.000001 3.554804 0.382192 -9.177069 -0.366219 -0.000001 -0.000001 8.268002 52.079639 14.118115 -5.544217 -0.000005 -0.000002 2.173891 3.071406 -0.345707 5.563091 2.057504 0.117601 5.946302 -18.679294 2.875995 6.505654 4.957692 -0.000004 0.000000 4.607692 -11.220447 -140.642215 -0.000007 0.000007 -8.465508 -63.743137 -129.114249 -117.408247 -0.000005 -0.000002 -14.594893 -327.967324 -32.549048 -376.208568 -3.048499 -0.728799 6.604107 44.862479 22.222213 16.297448 -3.710291 0.000002 -0.000007 -3.430617 -21.560295 156.183258 0.000000 0.000008 -10.450896 -55.225245 -29.381746 -12.865394 -0.000002 0.000010 -12.539202 485.112437 190.362891 -249.816355 2.442590 -0.601407 -2.767505 131.250882 6.639330 94.690744 -0.000000 -0.000007 -17.033707 -188.157232 45.106071 171.290803 -0.000003 0.000000 -19.318802 -170.508719 113.391420 429.018443 -3.126198 -0.601405 -2.283500 -132.292787 -32.890786 -107.370266 -0.000003 0.000000 -16.919397 374.369307 -72.189847 -174.800879 0.000001 0.000001 -18.035898 200.415167 52.262145 -195.277649
20.613298 39.272903 9.549797 8.575323 -3.036976 -16.525812 -0.128498 0.160399 6.566005 -7.704575 3.105587 7.877534 -0.000001 -0.000002 3.554805 0.295130 -9.169654 -0.387553 -0.000005 0.000003 8.267997 52.142323 14.131199 -5.689682 0.000005 -0.000001 2.173899 3.030554 -0.306348 5.633388 2.057500 0.117600 5.946311 -18.695884 2.950748 6.552354 4.957698 0.000003 -0.000004 4.642724 -11.188917 -140.756047 -0.000004 0.000005 -8.465505 -64.188137 -129.056165 -117.466440 -0.000010 0.000005 -14.594894 -327.856402 -32.330632 -376.295147 -3.048502 -0.728803 6.604107 44.745628 22.120005 16.248918 -3.710298 0.000000 -0.000003 -3.351026 -21.452837 156.098892 0.000004 0.000007 -10.450891 -54.767831 -29.560864 -12.789463 -0.000006 0.000005 -12.539204 485.151178 190.470644 -249.778215 2.442592 -0.601403 -2.767499 131.333937 6.573909 94.617456 0.000000 0.000002 -17.033705 -188.157860 45.100036 171.268059 -0.000000 -0.000001 -19.318804 -170.359220 113.401699 428.887249 -3.126196 -0.601403 -2.283494 -132.147290 -32.984998 -107.180592 -0.000005 -0.000001 -16.919397 373.930618 -72.198665 -175.097801 0.000000 -0.000005 -18.035898 200.289478 52.275184 -195.193829
20.627296 39.276001 9.542301 8.454561 -3.126741 -16.441278 -0.128501 0.160404 6.566002 -7.611505 3.172775 7.860309 -0.000003 -0.000002 3.554805 0.197246 -9.161427 -0.411181 -0.000003 0.000006 8.267994 52.158466 14.154395 -5.804090 -0.000000 0.000004 2.173896 3.034933 -0.261509 5.678065 2.057507 0.117600 5.946305 -18.711942 3.034394 6.588109 4.957701 0.000008 0.000003 4.685264 -11.162133 -140.863936 0.000000 -0.000000 -8.465501 -64.671537 -129.002848 -117.515959 -0.000008 0.000002 -14.594894 -327.754769 -32.088099 -376.376563 -3.048499 -0.728802 6.604101 44.620454 22.007742 16.191493 -3.710296 -0.000001 -0.000001 -3.275216 -21.317850 155.998952 -0.000003 0.000003 -10.450896 -54.262796 -29.757806 -12.695279 -0.000007 0.000010 -12.539202 485.180193 190.579394 -249.738572 2.442592 -0.601395 -2.767498 131.420612 6.520523 94.540576 -0.000000 -0.000006 -17.033707 -188.168460 45.091095 171.245874 -0.000003 0.000001 -19.318800 -170.192454 113.412764 428.739553 -3.126196 -0.601396 -2.283499 -131.998747 -33.094135 -106.976847 -0.000005 -0.000005 -16.919395 373.385815 -72.213814 -175.469568 0.000002 -0.000000 -18.035896 200.134269 52.291102 -195.089546
